# Blender v2.69 (sub 0) OBJ File: ''
# www.blender.org
mtllib UmbreonChestTuft.mtl
o mesh_Mesh.001
v 0.292491 0.896173 1.580583
v 0.664176 0.900091 1.355991
v 0.069169 1.309858 1.470616
v 0.519983 1.421255 1.074483
v 0.912580 1.370123 0.821066
v 1.071782 0.906420 0.993384
v 1.185275 1.241968 0.572412
v 1.465965 1.259851 0.529625
v 1.336451 0.930952 -0.371120
v 1.262200 1.155695 -0.374758
v 1.299901 0.920466 -0.296080
v 0.844391 0.477937 1.576556
v 1.109169 0.274462 1.056614
v 1.421445 0.251036 0.674509
v 1.284487 0.726053 0.586082
v 0.720712 0.631830 -0.700882
v 0.815003 0.641211 -0.696440
v 0.069169 1.011740 -1.049844
v 0.376014 1.008524 -0.865659
v 0.421019 0.449495 -0.833039
v 0.069169 -1.326823 1.571818
v 0.714418 -0.841810 1.442293
v 0.069169 -0.052927 1.795984
v 0.663802 0.267168 1.474303
v 1.283323 -0.020678 1.076307
v 1.109046 -0.301798 1.192568
v 1.095816 1.717985 -0.071894
v 1.302395 1.431887 -0.378751
v 0.758056 1.440672 -0.303593
v 1.211988 1.300470 -0.269854
v 0.465956 1.870413 0.358614
v 0.069169 1.781847 0.796696
v 0.892760 1.614523 0.412004
v 0.705316 1.888960 0.071288
v 0.392024 1.878675 -0.114682
v 0.705316 1.888960 0.071288
v 0.147936 1.641001 -0.557321
v 0.069169 1.880491 -0.218879
v 0.292366 1.968069 0.288687
v 0.069169 2.037298 0.420603
v 0.519114 2.011175 0.047393
v 0.587800 1.987387 0.060236
v 0.350990 1.993475 -0.077139
v 0.451006 1.988829 -0.038626
v 0.337689 1.989973 -0.120518
v 0.069169 1.995932 -0.207250
v 0.069169 1.903105 -0.213160
v 0.069169 1.346685 1.687021
v 0.632201 -0.340933 1.336423
v 1.043347 -0.044283 1.008065
v 0.885211 -0.110266 1.209732
v 0.951088 -0.445196 1.237134
v 1.260188 0.283865 0.517694
v 1.489581 0.649618 0.051124
v 0.069169 1.947561 1.008142
v 1.546064 0.765757 0.778482
v 1.095816 1.717985 -0.071894
v 1.060154 2.018507 -0.204358
v 0.069169 -0.309306 2.034578
v 0.069169 0.391462 1.911430
v 0.769562 2.051275 0.482669
v 1.060154 2.018507 -0.204358
v 0.723228 2.113447 -0.031951
v 0.069169 2.015432 -0.494750
v 0.705316 1.888960 0.071288
v 0.587800 1.987387 0.060236
v 0.519114 2.011175 0.047393
v 0.442651 1.429625 -0.473242
v 0.525649 1.157210 -0.942096
v 0.072989 1.418696 -0.638560
v 0.547002 0.583006 -0.788349
v 0.589760 0.514837 -0.851347
v 0.702020 1.005106 -0.669969
v 0.069169 0.304487 -1.086578
v 0.069169 0.309687 -0.961697
v 0.069169 0.892725 1.778110
v 0.663960 0.535398 1.424151
v 1.230267 1.265337 0.459031
v 1.230267 1.265337 0.459031
v 0.758056 1.440672 -0.303593
v 0.069169 1.661745 -0.417650
v 0.513102 1.183500 -0.702543
v -0.381647 1.421255 1.074483
v -0.525838 0.900091 1.355991
v -0.154154 0.896173 1.580583
v -0.933446 0.906420 0.993384
v -0.774245 1.370123 0.821066
v -1.327639 1.259851 0.529625
v -1.046936 1.241968 0.572414
v -1.015333 1.206267 -0.374757
v -1.079990 0.986883 -0.352379
v -1.042590 0.979826 -0.275237
v -0.706055 0.477937 1.576556
v -1.146150 0.726053 0.586082
v -1.283109 0.251036 0.674509
v -0.970832 0.274462 1.056614
v -0.676668 0.641211 -0.696440
v -0.582376 0.631830 -0.700882
v -0.237679 1.008524 -0.865659
v -0.282683 0.449495 -0.833039
v -0.525466 0.267168 1.474303
v -0.576083 -0.841810 1.442293
v -1.144987 -0.020678 1.076308
v -0.970708 -0.301798 1.192568
v -1.094977 1.502813 -0.360224
v -0.899516 1.736929 -0.044770
v -0.619720 1.440672 -0.303593
v -1.000581 1.358789 -0.269854
v -0.327621 1.870413 0.358614
v -0.754423 1.614523 0.412004
v -0.566980 1.888960 0.071288
v -0.253688 1.878675 -0.114682
v -0.566980 1.888960 0.071288
v -0.154030 1.968069 0.288687
v -0.449462 1.987387 0.060236
v -0.380778 2.011175 0.047393
v -0.312669 1.988829 -0.038626
v -0.212654 1.993475 -0.077139
v -0.199353 1.989973 -0.120518
v -0.812751 -0.445196 1.237134
v -0.746873 -0.110266 1.209732
v -0.905011 -0.044283 1.008066
v -0.493865 -0.340933 1.336423
v -1.121850 0.283865 0.517695
v -1.204934 0.683683 0.081695
v -1.407728 0.765757 0.778482
v -0.921817 2.018507 -0.204358
v -0.899516 1.736929 -0.044770
v -0.631226 2.051275 0.482669
v -0.921817 2.018507 -0.204358
v -0.584893 2.113447 -0.031951
v -0.566980 1.888960 0.071288
v -0.380778 2.011175 0.047393
v -0.449462 1.987387 0.060236
v -0.387313 1.157210 -0.942096
v -0.304315 1.429625 -0.473242
v 0.065346 1.418696 -0.638560
v -0.451424 0.514837 -0.851347
v -0.408666 0.583006 -0.788349
v -0.563685 1.005106 -0.669969
v -0.525625 0.535398 1.424151
v -1.091931 1.265337 0.459031
v -1.091931 1.265337 0.459031
v -0.619720 1.440672 -0.303593
v -0.374767 1.183500 -0.702543
vt 0.038986 -0.439276
vt 0.087881 -0.439276
vt 0.009608 -0.407618
vt 0.068913 -0.382334
vt 0.120559 -0.388461
vt 0.141502 -0.439276
vt 0.156432 -0.403079
vt 0.171530 -0.390123
vt 0.964172 -0.782555
vt 0.961867 -0.750479
vt 0.983219 -0.793736
vt 0.087725 -0.470236
vt 0.146420 -0.508858
vt 0.174043 -0.502542
vt 0.170151 -0.451888
vt 0.914816 -0.864114
vt 0.921477 -0.828117
vt 0.832526 -0.778545
vt 0.869121 -0.778545
vt 0.874489 -0.854512
vt 0.009608 -0.684482
vt 0.070831 -0.605513
vt 0.010715 -0.578966
vt 0.087832 -0.508858
vt 0.151459 -0.541160
vt 0.123356 -0.569363
vt 0.957587 -0.680137
vt 0.974272 -0.715246
vt 0.906079 -0.722593
vt 0.991544 -0.712442
vt 0.061806 -0.334179
vt 0.009608 -0.343101
vt 0.117952 -0.362297
vt 0.093293 -0.332685
vt 0.871031 -0.658382
vt 0.908395 -0.657194
vt 0.832526 -0.678495
vt 0.832526 -0.658382
vt 0.047683 -0.316135
vt 0.018540 -0.313670
vt 0.064442 -0.312711
vt 0.077834 -0.321845
vt 0.863962 -0.621761
vt 0.876525 -0.632878
vt 0.864110 -0.644451
vt 0.845704 -0.625203
vt 0.833835 -0.626469
vt 0.009608 -0.389384
vt 0.097022 -0.605990
vt 0.144724 -0.573906
vt 0.120336 -0.549771
vt 0.110761 -0.572505
vt 0.184026 -0.498733
vt 0.189070 -0.432916
vt 0.009608 -0.324411
vt 0.181577 -0.437168
vt 0.144664 -0.351817
vt 0.134656 -0.326523
vt 0.009608 -0.540372
vt 0.009608 -0.494304
vt 0.100986 -0.317789
vt 0.950714 -0.639572
vt 0.910531 -0.626235
vt 0.832528 -0.638327
vt 0.081553 -0.308605
vt 0.923852 -0.616315
vt 0.883543 -0.613866
vt 0.865678 -0.724490
vt 0.863550 -0.741104
vt 0.832526 -0.723058
vt 0.884929 -0.853274
vt 0.894614 -0.845670
vt 0.908002 -0.778545
vt 0.832526 -0.874844
vt 0.832526 -0.873844
vt 0.009608 -0.439276
vt 0.087853 -0.479365
vt 0.170549 -0.353802
vt 0.179178 -0.406012
vt 0.832526 -0.689015
vt 0.864968 -0.750632
vn 0.524094 0.401746 0.750908
vn 0.503647 0.529710 0.682424
vn 0.000000 -0.473220 0.880917
vn 0.480514 0.659536 0.577990
vn 0.494522 0.631245 0.597430
vn 0.642720 0.256355 0.721885
vn 0.816767 -0.309000 0.487197
vn 0.941164 -0.293756 0.167085
vn 0.941496 -0.245949 -0.230262
vn 0.507035 0.098758 -0.856227
vn 0.853852 -0.399919 0.333169
vn 0.485122 -0.639363 0.596484
vn 0.683737 0.205969 0.700034
vn 0.903592 -0.428297 0.007843
vn 0.987732 0.047761 0.148503
vn 0.061619 -0.835625 0.545834
vn 0.584429 -0.720176 -0.373852
vn 0.000001 0.353788 -0.935326
vn 0.454817 0.292886 -0.841029
vn 0.631458 -0.762719 0.139470
vn 0.000000 -0.173306 0.984868
vn 0.453787 -0.197225 0.869010
vn 0.000000 -0.997253 0.073733
vn 0.621937 0.069247 0.779992
vn 0.847072 -0.397076 0.353191
vn 0.303537 -0.932737 0.194494
vn 0.597945 0.167010 -0.783945
vn 0.785821 0.362529 -0.500992
vn 0.170740 0.540889 -0.823582
vn 0.740363 0.046372 0.670606
vn 0.361400 0.798700 0.481063
vn 0.000000 0.320261 0.947295
vn 0.428358 0.786981 0.443983
vn 0.429811 0.612080 0.663793
vn 0.352733 0.339335 -0.872005
vn 0.238541 0.504290 -0.829934
vn 0.206549 -0.402966 -0.891568
vn -0.024720 0.066622 -0.997467
vn 0.371225 0.877431 0.303822
vn 0.000001 0.985629 0.168923
vn 0.246430 0.866544 0.434021
vn 0.206634 0.974415 0.088424
vn 0.033097 0.983251 -0.179227
vn -0.097171 0.991729 0.083621
vn 0.010132 0.775018 -0.631825
vn 0.000000 0.063539 -0.997979
vn 0.000000 0.951079 -0.308847
vn 0.000000 -0.136296 0.990661
vn -0.483529 -0.256279 -0.836971
vn 0.132185 -0.733359 -0.666867
vn 0.442244 -0.545000 0.712302
vn 0.773339 -0.407086 -0.485977
vn 0.292450 -0.830229 -0.474544
vn 0.970114 0.087749 0.226226
vn 0.000000 0.214637 0.976684
vn 0.904752 -0.385571 0.180822
vn 0.819379 0.430474 0.378562
vn 0.566636 0.610122 0.553783
vn 0.000000 -0.852046 0.523423
vn 0.000000 0.216193 0.976318
vn 0.501765 0.365675 0.783909
vn -0.101588 0.219739 -0.970255
vn 0.669546 0.721061 -0.178106
vn 0.000000 0.308237 -0.951292
vn 0.616651 0.694660 -0.370390
vn -0.036515 0.769004 0.638200
vn 0.346871 0.803719 -0.483442
vn 0.263932 0.756276 -0.598653
vn 0.207038 -0.371838 -0.904874
vn 0.237556 0.674497 -0.699014
vn 0.026460 -0.010163 -0.999573
vn -0.224464 -0.766656 -0.601489
vn 0.442915 0.316874 -0.838679
vn 0.000000 -0.663656 -0.748009
vn 0.000001 -0.996747 0.080599
vn 0.000000 0.421430 0.906827
vn 0.439741 -0.499893 0.746117
vn 0.182071 -0.725015 -0.664231
vn 0.798159 -0.568431 0.199570
vn 0.438890 0.751088 -0.493196
vn -0.340472 -0.086267 -0.936289
vn 0.619926 -0.315962 -0.718233
vn -0.480514 0.659536 0.577990
vn -0.503647 0.529710 0.682424
vn -0.524094 0.401746 0.750908
vn -0.642720 0.256355 0.721885
vn -0.494522 0.631245 0.597430
vn -0.947475 -0.286136 0.142891
vn -0.828547 -0.345408 0.440657
vn -0.542467 0.096927 -0.834437
vn -0.964232 -0.212409 -0.158483
vn -0.876858 -0.339283 0.340597
vn -0.485122 -0.639363 0.596484
vn -0.998871 0.044313 0.016816
vn -0.916654 -0.397229 -0.043641
vn -0.683737 0.205969 0.700034
vn -0.652760 -0.695730 -0.299722
vn -0.059595 -0.824931 0.562083
vn -0.454817 0.292886 -0.841029
vn -0.631458 -0.762719 0.139470
vn -0.621937 0.069247 0.779992
vn -0.453787 -0.197225 0.869011
vn -0.847072 -0.397076 0.353191
vn -0.303537 -0.932737 0.194494
vn -0.786584 0.407941 -0.463485
vn -0.773306 0.049638 -0.632087
vn -0.157980 0.548384 -0.821168
vn -0.701645 -0.012852 0.712411
vn -0.361400 0.798700 0.481063
vn -0.429579 0.788385 0.440321
vn -0.429812 0.612080 0.663792
vn -0.345286 0.335307 -0.876522
vn -0.238543 0.504291 -0.829933
vn -0.371224 0.877430 0.303825
vn -0.206634 0.974414 0.088426
vn -0.246432 0.866543 0.434020
vn 0.097171 0.991729 0.083621
vn -0.033097 0.983251 -0.179228
vn -0.010132 0.775018 -0.631825
vn -0.773339 -0.407086 -0.485977
vn -0.442244 -0.544969 0.712302
vn -0.132185 -0.733358 -0.666869
vn 0.483528 -0.256279 -0.836972
vn -0.361354 -0.765821 -0.531922
vn -0.995219 0.094986 0.022746
vn -0.904752 -0.385571 0.180822
vn -0.579580 0.600445 0.550956
vn -0.904395 0.289589 0.313382
vn -0.501766 0.365677 0.783908
vn 0.050987 0.194872 -0.979503
vn -0.669546 0.721061 -0.178106
vn -0.616648 0.694662 -0.370391
vn -0.346875 0.803715 -0.483446
vn 0.036516 0.769007 0.638197
vn -0.207038 -0.371838 -0.904874
vn -0.263932 0.756276 -0.598653
vn -0.237556 0.674498 -0.699014
vn 0.224464 -0.766656 -0.601489
vn -0.026460 -0.010163 -0.999573
vn -0.468856 0.307382 -0.828059
vn -0.439741 -0.499893 0.746117
vn -0.196585 -0.677236 -0.709018
vn -0.731161 -0.664795 0.153135
vn -0.438888 0.751090 -0.493195
vn -0.619927 -0.315961 -0.718233
usemtl m_00
s 1
f 1/1/1 2/2/2 3/3/3
f 4/4/4 3/3/3 2/2/2
f 5/5/5 4/4/4 6/6/6
f 2/2/2 6/6/6 4/4/4
f 7/7/7 8/8/8 5/5/5
f 9/9/9 10/10/10 11/11/11
f 2/2/2 1/1/1 12/12/12
f 12/12/12 6/6/6 2/2/2
f 13/13/13 14/14/14 6/6/6
f 15/15/15 6/6/6 14/14/14
f 16/16/16 17/17/17 11/11/11
f 9/9/9 11/11/11 17/17/17
f 18/18/18 19/19/19 20/20/20
f 21/21/21 22/22/22 23/23/23
f 24/24/24 23/23/23 22/22/22
f 25/25/25 13/13/13 26/26/26
f 25/25/25 14/14/14 13/13/13
f 27/27/27 28/28/28 29/29/29
f 27/27/27 30/30/30 28/28/28
f 28/28/28 30/30/30 11/11/11
f 4/4/4 31/31/31 32/32/32
f 5/5/5 31/31/31 4/4/4
f 31/31/31 5/5/5 33/33/33
f 33/33/33 34/34/34 31/31/31
f 29/29/29 35/35/35 36/36/36
f 37/37/37 38/38/38 35/35/35
f 39/39/39 40/40/40 31/31/31
f 39/39/39 31/31/31 41/41/41
f 42/42/42 41/41/41 31/31/31
f 43/43/43 44/44/44 45/45/45
f 46/46/46 43/43/43 47/47/47
f 45/45/45 47/47/47 43/43/43
f 48/48/48 4/4/4 32/32/32
f 49/49/49 50/50/50 22/22/22
f 50/50/50 51/51/51 22/22/22
f 51/51/51 52/52/52 22/22/22
f 53/53/53 14/14/14 50/50/50
f 25/25/25 50/50/50 14/14/14
f 53/53/53 54/54/54 14/14/14
f 32/32/32 31/31/31 55/55/55
f 15/15/15 7/7/7 56/56/56
f 54/54/54 15/15/15 14/14/14
f 54/54/54 7/7/7 15/15/15
f 8/8/8 33/33/33 5/5/5
f 57/57/57 58/58/58 33/33/33
f 22/22/22 52/52/52 24/24/24
f 52/52/52 51/51/51 24/24/24
f 13/13/13 24/24/24 26/26/26
f 59/59/59 23/23/23 24/24/24
f 60/60/60 59/59/59 24/24/24
f 48/48/48 3/3/3 4/4/4
f 34/34/34 61/61/61 31/31/31
f 61/61/61 42/42/42 31/31/31
f 58/58/58 34/34/34 33/33/33
f 27/27/27 29/29/29 62/62/62
f 36/36/36 62/62/62 29/29/29
f 15/15/15 56/56/56 6/6/6
f 5/5/5 56/56/56 7/7/7
f 5/5/5 6/6/6 56/56/56
f 8/8/8 57/57/57 33/33/33
f 45/45/45 63/63/63 35/35/35
f 64/64/64 47/47/47 45/45/45
f 61/61/61 65/65/65 42/42/42
f 44/44/44 63/63/63 45/45/45
f 35/35/35 38/38/38 45/45/45
f 64/64/64 45/45/45 38/38/38
f 66/66/66 44/44/44 67/67/67
f 43/43/43 67/67/67 44/44/44
f 66/66/66 63/63/63 44/44/44
f 36/36/36 35/35/35 63/63/63
f 66/66/66 36/36/36 63/63/63
f 55/55/55 31/31/31 40/40/40
f 68/68/68 69/69/69 70/70/70
f 71/71/71 72/72/72 16/16/16
f 73/73/73 9/9/9 17/17/17
f 9/9/9 73/73/73 10/10/10
f 29/29/29 10/10/10 73/73/73
f 28/28/28 11/11/11 10/10/10
f 71/71/71 20/20/20 73/73/73
f 74/74/74 18/18/18 20/20/20
f 72/72/72 71/71/71 73/73/73
f 17/17/17 72/72/72 73/73/73
f 17/17/17 16/16/16 72/72/72
f 74/74/74 20/20/20 75/75/75
f 75/75/75 20/20/20 16/16/16
f 20/20/20 71/71/71 16/16/16
f 60/60/60 24/24/24 76/76/76
f 77/77/77 76/76/76 24/24/24
f 13/13/13 6/6/6 77/77/77
f 12/12/12 77/77/77 6/6/6
f 8/8/8 78/78/78 57/57/57
f 54/54/54 79/79/79 7/7/7
f 7/7/7 79/79/79 8/8/8
f 25/25/25 26/26/26 50/50/50
f 51/51/51 50/50/50 26/26/26
f 51/51/51 26/26/26 24/24/24
f 76/76/76 1/1/1 3/3/3
f 77/77/77 12/12/12 1/1/1
f 76/76/76 77/77/77 1/1/1
f 24/24/24 13/13/13 77/77/77
f 29/29/29 68/68/68 35/35/35
f 69/69/69 68/68/68 80/29/80
f 73/73/73 20/20/20 19/19/19
f 70/70/70 81/80/81 68/68/68
f 35/35/35 68/68/68 81/80/81
f 81/80/81 37/37/37 35/35/35
f 19/19/19 82/81/82 73/73/73
f 73/73/73 82/81/82 29/29/29
f 18/18/18 70/70/70 19/19/19
f 82/81/82 19/19/19 70/70/70
f 69/69/69 82/81/82 70/70/70
f 69/69/69 80/29/80 82/81/82
f 28/28/28 10/10/10 29/29/29
f 83/4/83 84/2/84 3/3/3
f 85/1/85 3/3/3 84/2/84
f 84/2/84 83/4/83 86/6/86
f 87/5/87 86/6/86 83/4/83
f 88/8/88 89/7/89 87/5/87
f 90/10/90 91/9/91 92/11/92
f 85/1/85 84/2/84 93/12/93
f 86/6/86 93/12/93 84/2/84
f 94/15/94 95/14/95 86/6/86
f 96/13/96 86/6/86 95/14/95
f 91/9/91 97/17/97 92/11/92
f 98/16/98 92/11/92 97/17/97
f 99/19/99 18/18/18 100/20/100
f 101/24/101 102/22/102 23/23/23
f 21/21/21 23/23/23 102/22/102
f 96/13/96 103/25/103 104/26/104
f 95/14/95 103/25/103 96/13/96
f 105/28/105 106/27/106 107/29/107
f 108/30/108 106/27/106 105/28/105
f 108/30/108 105/28/105 92/11/92
f 109/31/109 83/4/83 32/32/32
f 109/31/109 87/5/87 83/4/83
f 87/5/87 109/31/109 110/33/110
f 111/34/111 110/33/110 109/31/109
f 112/35/112 107/29/107 113/36/113
f 38/38/38 37/37/37 112/35/112
f 40/40/40 114/39/114 109/31/109
f 115/42/115 109/31/109 116/41/116
f 114/39/114 116/41/116 109/31/109
f 117/44/117 118/43/118 119/45/119
f 119/45/119 118/43/118 47/47/47
f 46/46/46 47/47/47 118/43/118
f 83/4/83 48/48/48 32/32/32
f 120/52/120 121/51/121 102/22/102
f 121/51/121 122/50/122 102/22/102
f 122/50/122 123/49/123 102/22/102
f 103/25/103 95/14/95 122/50/122
f 124/53/124 122/50/122 95/14/95
f 125/54/125 124/53/124 95/14/95
f 109/31/109 32/32/32 55/55/55
f 89/7/89 94/15/94 126/56/126
f 94/15/94 125/54/125 95/14/95
f 89/7/89 125/54/125 94/15/94
f 110/33/110 88/8/88 87/5/87
f 127/58/127 128/57/128 110/33/110
f 120/52/120 102/22/102 101/24/101
f 121/51/121 120/52/120 101/24/101
f 101/24/101 96/13/96 104/26/104
f 23/23/23 59/59/59 101/24/101
f 59/59/59 60/60/60 101/24/101
f 3/3/3 48/48/48 83/4/83
f 129/61/129 111/34/111 109/31/109
f 115/42/115 129/61/129 109/31/109
f 111/34/111 127/58/127 110/33/110
f 113/36/113 107/29/107 130/62/130
f 106/27/106 130/62/130 107/29/107
f 126/56/126 94/15/94 86/6/86
f 126/56/126 87/5/87 89/7/89
f 86/6/86 87/5/87 126/56/126
f 128/57/128 88/8/88 110/33/110
f 131/63/131 119/45/119 112/35/112
f 47/47/47 64/64/64 119/45/119
f 132/65/132 129/61/129 115/42/115
f 131/63/131 117/44/117 119/45/119
f 64/64/64 38/38/38 119/45/119
f 112/35/112 119/45/119 38/38/38
f 118/43/118 117/44/117 133/67/133
f 134/66/134 133/67/133 117/44/117
f 131/63/131 134/66/134 117/44/117
f 112/35/112 113/36/113 131/63/131
f 113/36/113 134/66/134 131/63/131
f 109/31/109 55/55/55 40/40/40
f 135/69/135 136/68/136 137/70/137
f 138/72/138 139/71/139 98/16/98
f 91/9/91 140/73/140 97/17/97
f 107/29/107 140/73/140 90/10/90
f 91/9/91 90/10/90 140/73/140
f 92/11/92 105/28/105 90/10/90
f 100/20/100 139/71/139 140/73/140
f 18/18/18 74/74/74 100/20/100
f 139/71/139 138/72/138 140/73/140
f 138/72/138 97/17/97 140/73/140
f 98/16/98 97/17/97 138/72/138
f 139/71/139 100/20/100 98/16/98
f 74/74/74 75/75/75 100/20/100
f 100/20/100 75/75/75 98/16/98
f 141/77/141 101/24/101 76/76/76
f 60/60/60 76/76/76 101/24/101
f 86/6/86 96/13/96 141/77/141
f 141/77/141 93/12/93 86/6/86
f 142/78/142 88/8/88 128/57/128
f 143/79/143 125/54/125 89/7/89
f 143/79/143 89/7/89 88/8/88
f 104/26/104 103/25/103 122/50/122
f 122/50/122 121/51/121 104/26/104
f 104/26/104 121/51/121 101/24/101
f 85/1/85 76/76/76 3/3/3
f 93/12/93 141/77/141 85/1/85
f 141/77/141 76/76/76 85/1/85
f 96/13/96 101/24/101 141/77/141
f 136/68/136 107/29/107 112/35/112
f 135/69/135 144/29/144 136/68/136
f 100/20/100 140/73/140 99/19/99
f 112/35/112 81/80/81 136/68/136
f 137/70/137 136/68/136 81/80/81
f 37/37/37 81/80/81 112/35/112
f 99/19/99 140/73/140 145/81/145
f 145/81/145 140/73/140 107/29/107
f 145/81/145 137/70/137 99/19/99
f 18/18/18 99/19/99 137/70/137
f 145/81/145 135/69/135 137/70/137
f 144/29/144 135/69/135 145/81/145
f 90/10/90 105/28/105 107/29/107
