
<!-- saved from url=(0092)https://dl.dropboxusercontent.com/u/268875826/HairModels/Reading%20glasses2/Glassesshade.obj -->
<html><head><meta http-equiv="Content-Type" content="text/html; charset=UTF-8"><style type="text/css"></style></head><body><pre style="word-wrap: break-word; white-space: pre-wrap;"># Blender v2.69 (sub 0) OBJ File: ''
# www.blender.org
mtllib Glassesshade.mtl
o mesh_Mesh.015
v 0.603890 0.351826 0.741553
v 0.452146 0.316120 0.774937
v 0.406805 -0.139381 0.720803
v 0.273925 -0.118319 0.757586
v -0.452229 0.316120 0.774937
v -0.274008 -0.118319 0.757586
v -0.314092 0.269293 0.803268
v -0.184512 -0.070864 0.787148
v -0.603973 0.351826 0.741553
v -0.406888 -0.139381 0.720803
v -0.452229 0.316120 0.774937
v -0.274008 -0.118319 0.757586
v 0.452146 0.316120 0.774937
v 0.314009 0.269293 0.803268
v 0.184430 -0.070864 0.787148
v -0.406888 -0.139381 0.720803
v -0.603973 0.351826 0.741553
v -0.514666 -0.143793 0.692804
v -0.532497 -0.144274 0.688221
v -0.747646 0.336113 0.702805
v 0.406805 -0.139381 0.720803
v 0.514583 -0.143793 0.692804
v 0.603890 0.351826 0.741553
v 0.532414 -0.144274 0.688221
v 0.747563 0.336113 0.702805
v -0.532497 -0.144274 0.688221
v -0.594385 -0.145739 0.672290
v -0.747646 0.336113 0.702805
v -0.688416 -0.142324 0.648907
v -0.870438 0.298716 0.666229
v -0.314092 0.269293 0.803268
v -0.184512 -0.070864 0.787148
v -0.202840 0.220034 0.824413
v -0.155816 -0.028349 0.800570
v -0.139858 0.031277 0.813209
v -0.137266 0.137390 0.829200
v 0.870355 0.298716 0.666229
v 0.688333 -0.142324 0.648907
v 0.594303 -0.145739 0.672290
v 0.532414 -0.144274 0.688221
v 0.688333 -0.142324 0.648907
v 0.809719 -0.103029 0.623751
v 0.870355 0.298716 0.666229
v 0.895493 -0.045839 0.610219
v 0.935240 0.087545 0.619334
v 0.957488 0.220911 0.630254
v 0.937732 0.256212 0.640916
v 0.137183 0.137390 0.829200
v 0.202757 0.220034 0.824413
v 0.139775 0.031277 0.813209
v 0.155733 -0.028349 0.800570
v 0.184430 -0.070864 0.787148
v 0.314009 0.269293 0.803268
v -0.688416 -0.142324 0.648907
v -0.809802 -0.103029 0.623751
v -0.870438 0.298716 0.666229
v -0.895576 -0.045839 0.610219
v -0.935323 0.087545 0.619334
v -0.957571 0.220911 0.630254
v -0.937815 0.256212 0.640917
v -0.913114 0.238918 0.640985
vt 0.306977 0.219249
vt 0.198949 0.355862
vt 0.589325 0.914496
vt 0.444975 0.973174
vt -0.603446 0.191816
vt -0.097206 0.622309
vt -0.442737 0.156603
vt -0.055242 0.500527
vt -0.767429 0.250492
vt -0.198958 0.740318
vt 0.114198 0.496876
vt 0.316169 0.973997
vt -0.291648 0.819858
vt -0.307223 0.832637
vt -0.883106 0.369074
vt 0.694326 0.852103
vt 0.711413 0.841433
vt 0.456320 0.147560
vt -0.361274 0.876989
vt -0.447939 0.937153
vt -0.962795 0.500953
vt -0.304054 0.142976
vt -0.063628 0.426698
vt -0.097013 0.339913
vt -0.179342 0.203012
vt 0.855436 0.741522
vt 0.606756 0.114221
vt 0.770721 0.804399
vt 0.931644 0.619733
vt 0.957525 0.499408
vt 0.868040 0.319327
vt 0.771905 0.143571
vt 0.717823 0.116233
vt 0.177343 0.883062
vt 0.056943 0.623922
vt 0.073953 0.761282
vt 0.248899 0.942443
vt -0.587701 0.970420
vt -0.709985 0.956469
vt -0.852001 0.814102
vt -0.987791 0.666816
vt -0.996402 0.606833
vn 0.243736 -0.138344 0.959924
vn 0.243744 -0.138344 0.959922
vn 0.243781 -0.138347 0.959912
vn 0.243790 -0.138347 0.959910
vn -0.243769 -0.138339 0.959916
vn -0.243735 -0.138337 0.959925
vn -0.243764 -0.138339 0.959918
vn -0.243726 -0.138336 0.959927
vn -0.243736 -0.138344 0.959924
vn -0.243781 -0.138347 0.959912
vn -0.243744 -0.138344 0.959922
vn -0.243790 -0.138348 0.959910
vn 0.243769 -0.138339 0.959916
vn 0.243763 -0.138339 0.959918
vn 0.243735 -0.138337 0.959925
vn 0.243726 -0.138336 0.959927
vn -0.243710 -0.138334 0.959932
vn -0.243742 -0.138316 0.959926
vn -0.243417 -0.138289 0.960013
vn -0.243178 -0.138248 0.960079
vn -0.243762 -0.138316 0.959921
vn 0.243710 -0.138334 0.959932
vn 0.243417 -0.138289 0.960013
vn 0.243742 -0.138316 0.959926
vn 0.243178 -0.138249 0.960079
vn 0.243762 -0.138316 0.959921
vn -0.243798 -0.138321 0.959911
vn -0.243783 -0.138329 0.959914
vn -0.243819 -0.138339 0.959903
vn -0.243742 -0.138315 0.959927
vn -0.243805 -0.138321 0.959910
vn -0.243695 -0.138324 0.959937
vn -0.243906 -0.138331 0.959883
vn -0.243854 -0.138364 0.959891
vn -0.243945 -0.138324 0.959874
vn -0.243769 -0.138317 0.959919
vn -0.244771 -0.138632 0.959619
vn 0.243798 -0.138321 0.959911
vn 0.243741 -0.138315 0.959927
vn 0.243805 -0.138321 0.959910
vn 0.243783 -0.138329 0.959914
vn 0.243819 -0.138339 0.959903
vn 0.243699 -0.138279 0.959942
vn 0.243680 -0.138276 0.959948
vn 0.261421 -0.132812 0.956044
vn 0.243664 -0.138268 0.959953
vn 0.249769 -0.136151 0.958686
vn 0.280210 -0.126192 0.951608
vn 0.272607 -0.135156 0.952585
vn 0.243769 -0.138317 0.959919
vn 0.243853 -0.138364 0.959891
vn 0.244771 -0.138632 0.959619
vn 0.243945 -0.138324 0.959874
vn 0.243906 -0.138331 0.959883
vn 0.243694 -0.138324 0.959937
vn -0.261416 -0.132818 0.956044
vn -0.243680 -0.138277 0.959948
vn -0.243700 -0.138279 0.959942
vn -0.243665 -0.138268 0.959953
vn -0.249770 -0.136151 0.958686
vn -0.280204 -0.126199 0.951609
vn -0.272558 -0.135209 0.952592
usemtl m_00
s 1
f 1/1/1 2/2/2 3/3/3
f 4/4/4 3/3/3 2/2/2
f 5/5/5 6/6/6 7/7/7
f 8/8/8 7/7/7 6/6/6
f 9/9/9 10/10/10 11/5/11
f 12/6/12 11/5/11 10/10/10
f 13/2/13 14/11/14 4/4/15
f 15/12/16 4/4/15 14/11/14
f 16/10/17 17/9/18 18/13/19
f 18/13/19 17/9/18 19/14/20
f 20/15/21 19/14/20 17/9/18
f 21/3/22 22/16/23 23/1/24
f 24/17/25 23/1/24 22/16/23
f 23/1/24 24/17/25 25/18/26
f 28/15/27 27/19/28 26/14/29
f 27/19/28 28/15/27 29/20/30
f 30/21/31 29/20/30 28/15/27
f 31/7/32 32/8/33 33/22/34
f 34/23/35 33/22/34 32/8/33
f 35/24/36 33/22/34 34/23/35
f 33/22/34 35/24/36 36/25/37
f 25/18/38 38/26/39 37/27/40
f 38/26/39 25/18/38 39/28/41
f 40/17/42 39/28/41 25/18/38
f 41/26/43 42/29/44 43/27/45
f 44/30/46 43/27/45 42/29/44
f 45/31/47 43/27/45 44/30/46
f 46/32/48 43/27/45 45/31/47
f 43/27/45 46/32/48 47/33/49
f 50/34/50 49/35/51 48/36/52
f 51/37/53 49/35/51 50/34/50
f 52/12/54 49/35/51 51/37/53
f 49/35/51 52/12/54 53/11/55
f 56/21/56 55/38/57 54/20/58
f 55/38/57 56/21/56 57/39/59
f 57/39/59 56/21/56 58/40/60
f 58/40/60 56/21/56 59/41/61
f 60/42/62 59/41/61 56/21/56
</pre></body></html>