
<!-- saved from url=(0069)https://dl.dropboxusercontent.com/s/hfvbgz0hotxboui/untitled.obj?dl=0 -->
<html><head><meta http-equiv="Content-Type" content="text/html; charset=UTF-8"><style type="text/css"></style></head><body><pre style="word-wrap: break-word; white-space: pre-wrap;"># Blender v2.72 (sub 0) OBJ File: ''
# www.blender.org
o mesh_Mesh.001
v -0.460131 0.358543 0.650859
v -0.446967 0.373325 0.678610
v -0.502643 0.381010 0.658242
v -0.421544 0.327364 0.630975
v -0.367154 0.297066 0.630068
v -0.384765 0.290419 0.616463
v -0.365058 0.261827 0.601866
v -0.319082 0.193005 0.588746
v -1.004260 0.317774 0.464084
v -0.935202 0.348629 0.569406
v -0.951661 0.368027 0.521295
v -0.863947 0.386440 0.622655
v -0.873568 0.411888 0.576442
v -0.772255 0.411537 0.663109
v -0.775480 0.440065 0.624526
v -0.650541 0.424383 0.690305
v -0.655072 0.450104 0.663695
v -0.541812 0.416777 0.698005
v -0.543126 0.440657 0.682490
v -0.432268 0.382723 0.667536
v -0.810485 0.373848 0.604000
v -0.769687 0.384287 0.624934
v -0.713730 0.395094 0.648726
v -0.648120 0.402588 0.661512
v -0.595141 0.401432 0.668252
v -0.543540 0.396189 0.668805
v 0.951534 0.368158 0.521161
v 0.935077 0.348764 0.569277
v 1.004124 0.317890 0.463983
v 0.863827 0.386583 0.622506
v 0.873447 0.412031 0.576283
v 0.772138 0.411688 0.662949
v 0.775364 0.440216 0.624350
v 0.650425 0.424538 0.690145
v 0.654959 0.450256 0.663518
v 0.541697 0.416935 0.697857
v 0.543014 0.440819 0.682325
v 0.446849 0.373480 0.678494
v 0.432150 0.382879 0.667416
v 0.367024 0.297203 0.630001
v 0.648004 0.402744 0.661361
v 0.595026 0.401590 0.668107
v 0.543424 0.396347 0.668666
v 0.502526 0.381166 0.658115
v 0.460011 0.358696 0.650749
v 0.421421 0.327507 0.630886
v 0.384636 0.290556 0.616396
v 0.364925 0.261959 0.601814
v 0.318934 0.193108 0.588724
v 0.934649 0.295248 0.493195
v 0.903423 0.327785 0.530198
v 0.875003 0.345716 0.556960
v 0.846194 0.361992 0.579033
v 0.810369 0.374001 0.603852
v 0.769572 0.384443 0.624783
v 0.713614 0.395248 0.648575
v 1.032569 0.164900 0.348964
v 1.071090 0.209171 0.361486
v 1.030039 0.205130 0.390070
v 0.947026 0.089849 0.336242
v 0.963241 0.150133 0.353434
v 0.972194 0.208670 0.391857
v 1.021395 0.244955 0.439566
v 1.036638 0.265965 0.411054
v 0.975931 0.303951 0.514812
v 0.962163 0.254190 0.441232
v -1.030205 0.205067 0.390099
v -0.963418 0.150093 0.353445
v -0.972347 0.208582 0.391899
v -0.934776 0.295113 0.493300
v -0.976062 0.303825 0.514913
v -0.962296 0.254066 0.441312
v -1.021541 0.244856 0.439628
v -1.071251 0.209103 0.361521
v -1.032748 0.164862 0.348976
v -0.947223 0.089849 0.336242
v -1.036784 0.265867 0.411123
v -0.903544 0.327641 0.530323
v -0.875122 0.345570 0.557095
v -0.846311 0.361839 0.579176
v -1.087365 0.326500 0.470166
v -0.911821 0.394308 0.596337
v -0.915765 0.398281 0.557812
v -0.817898 0.431036 0.606261
v -0.814687 0.423853 0.646141
v -0.712635 0.443914 0.645373
v -0.708925 0.435488 0.679482
v -0.610341 0.443674 0.669036
v -0.607665 0.433849 0.698396
v -0.516685 0.435450 0.686215
v -0.516408 0.422714 0.702791
v -0.426930 0.404947 0.695194
v -0.431283 0.386229 0.677243
v -0.516610 0.403404 0.669764
v -0.607701 0.419981 0.663437
v -0.708563 0.419672 0.642658
v -0.814550 0.404053 0.597539
v -0.914563 0.367941 0.522846
v -0.424810 0.397951 0.693931
v -0.340204 0.360189 0.699289
v 0.516291 0.422869 0.702645
v 0.607546 0.433998 0.698242
v 0.516571 0.435610 0.686058
v 0.610226 0.443825 0.668869
v 0.708804 0.435631 0.679324
v 0.712518 0.444061 0.645202
v 0.814560 0.423983 0.645996
v 0.817774 0.431173 0.606102
v 0.911688 0.394428 0.596209
v 0.915634 0.398405 0.557676
v 1.087231 0.326618 0.470055
v 0.914442 0.368084 0.522699
v 0.814431 0.404198 0.597383
v 0.708447 0.419825 0.642495
v 0.607587 0.420137 0.663279
v 0.516495 0.403566 0.669623
v 0.431165 0.386385 0.677119
v 0.424692 0.398106 0.693803
v 0.340080 0.360334 0.699194
v 0.426812 0.405100 0.695064
v 0.158544 -0.280230 0.803723
v 0.061347 -0.300079 0.884775
v 0.059408 -0.271717 0.895930
v -0.000098 -0.301500 0.902838
v 0.111399 -0.270561 0.861078
v 0.108854 -0.287228 0.846135
v 0.147394 -0.268959 0.821305
v 0.107764 -0.260824 0.861030
v 0.052984 -0.250828 0.896050
v -0.000098 -0.275923 0.912945
v -0.059604 -0.271717 0.895930
v -0.158740 -0.280230 0.803723
v -0.147590 -0.268959 0.821305
v -0.000098 -0.397696 0.845194
v -0.051363 -0.346209 0.848191
v -0.106748 -0.306528 0.826473
v -0.109051 -0.287228 0.846135
v -0.111596 -0.270561 0.861078
v -0.061543 -0.300079 0.884775
v -0.000098 -0.374632 0.849716
v -0.061301 -0.324070 0.869383
v -0.000098 -0.331999 0.881550
v 0.061104 -0.324070 0.869383
v 0.051166 -0.346209 0.848191
v 0.106552 -0.306528 0.826473
v -0.107960 -0.260824 0.861030
v -0.000098 -0.248938 0.904869
v -0.053181 -0.250828 0.896050
vt 0.682230 0.854040
vt 0.675000 0.847890
vt 0.699320 0.840110
vt 0.667630 0.871440
vt 0.645590 0.888850
vt 0.654020 0.891160
vt 0.647230 0.905610
vt 0.630380 0.938670
vt 0.931560 0.840040
vt 0.897010 0.826990
vt 0.903670 0.816170
vt 0.861550 0.812240
vt 0.864440 0.798240
vt 0.817910 0.805830
vt 0.817310 0.790480
vt 0.761900 0.808130
vt 0.761800 0.794260
vt 0.713670 0.819860
vt 0.712110 0.807510
vt 0.667680 0.844030
vt 0.838270 0.821360
vt 0.818970 0.819180
vt 0.792870 0.817980
vt 0.762710 0.818990
vt 0.738990 0.823450
vt 0.716290 0.829770
vt 0.901250 0.853490
vt 0.884420 0.838410
vt 0.870000 0.831130
vt 0.855540 0.824820
vt 0.950410 0.926290
vt 0.967670 0.898360
vt 0.948750 0.903530
vt 0.911140 0.968380
vt 0.920160 0.934720
vt 0.923750 0.900200
vt 0.943680 0.878740
vt 0.949770 0.867080
vt 0.919150 0.848260
vt 0.916840 0.873690
vt 0.968110 0.830650
vt 0.883970 0.807810
vt 0.885560 0.804260
vt 0.838160 0.792950
vt 0.837440 0.798110
vt 0.788750 0.793240
vt 0.788090 0.798610
vt 0.742470 0.800830
vt 0.742370 0.806440
vt 0.700890 0.811990
vt 0.702030 0.818520
vt 0.663460 0.833420
vt 0.666830 0.842600
vt 0.703570 0.828050
vt 0.742990 0.813040
vt 0.788670 0.805750
vt 0.838140 0.806110
vt 0.886270 0.816710
vt 0.662920 0.837330
vt 0.628380 0.860690
vt 0.029540 0.563680
vt 0.028090 0.558490
vt 0.017270 0.564310
vt 0.040190 0.557070
vt 0.041450 0.560160
vt 0.049070 0.556470
vt 0.038850 0.555710
vt 0.017270 0.559640
vt 0.026590 0.554510
vt 0.029980 0.568870
vt 0.029170 0.572880
vt 0.017270 0.577200
vt 0.044700 0.565370
vt 0.017270 0.569710
vn -0.318900 -0.765400 0.559000
vn 0.116300 -0.253800 0.960200
vn -0.268900 -0.819800 0.505600
vn -0.390600 -0.742000 0.544900
vn -0.351800 -0.607400 0.712300
vn -0.330700 -0.605500 0.723900
vn -0.559800 -0.537800 0.630400
vn -0.604900 -0.519200 0.603800
vn -0.865200 0.097900 0.491700
vn -0.539800 -0.216900 0.813300
vn -0.777100 0.445000 0.445100
vn -0.455900 -0.094700 0.885000
vn -0.583400 0.649600 0.487500
vn -0.323900 -0.012400 0.946000
vn -0.371100 0.724400 0.581000
vn -0.140400 -0.020300 0.989900
vn -0.174400 0.681600 0.710700
vn 0.054700 -0.104700 0.993000
vn 0.101900 0.541500 0.834500
vn 0.496000 0.215400 0.841200
vn -0.031800 -0.848500 0.528200
vn -0.087000 -0.813600 0.574900
vn -0.062100 -0.784700 0.616700
vn -0.057900 -0.798300 0.599400
vn -0.095300 -0.803100 0.588200
vn -0.122300 -0.807700 0.576700
vn 0.777100 0.445100 0.445100
vn 0.539700 -0.216700 0.813500
vn 0.865200 0.098000 0.491700
vn 0.455800 -0.094700 0.885000
vn 0.583400 0.649700 0.487400
vn 0.323900 -0.012300 0.946000
vn 0.371000 0.724500 0.580900
vn 0.140400 -0.020100 0.989900
vn 0.174500 0.681800 0.710400
vn -0.054500 -0.104400 0.993000
vn -0.101800 0.541900 0.834200
vn -0.116200 -0.253400 0.960400
vn -0.495900 0.215900 0.841100
vn 0.352000 -0.607100 0.712400
vn 0.057900 -0.798300 0.599500
vn 0.095300 -0.803000 0.588300
vn 0.122400 -0.807600 0.576900
vn 0.269000 -0.819700 0.505600
vn 0.319100 -0.765200 0.559100
vn 0.390700 -0.741800 0.545000
vn 0.330900 -0.605200 0.724000
vn 0.560000 -0.537600 0.630400
vn 0.605000 -0.519000 0.603800
vn -0.135200 -0.809700 0.571000
vn -0.123800 -0.829000 0.545300
vn -0.067200 -0.853800 0.516200
vn -0.037500 -0.863200 0.503500
vn 0.031700 -0.848500 0.528200
vn 0.087000 -0.813600 0.574900
vn 0.062100 -0.784700 0.616800
vn 0.275400 -0.617100 0.737100
vn 0.586500 -0.513800 0.626100
vn 0.278000 -0.682500 0.675900
vn 0.125500 -0.303100 0.944600
vn 0.114600 -0.438500 0.891400
vn -0.035800 -0.667700 0.743600
vn 0.512400 -0.480100 0.712000
vn 0.861400 0.059500 0.504400
vn 0.503200 -0.460000 0.731600
vn -0.108600 -0.786600 0.607800
vn -0.278000 -0.682900 0.675500
vn -0.114700 -0.438900 0.891200
vn 0.035400 -0.668300 0.743100
vn 0.134800 -0.809900 0.570900
vn -0.503300 -0.460200 0.731400
vn 0.108100 -0.786900 0.607500
vn -0.512600 -0.480400 0.711700
vn -0.586300 -0.514200 0.626000
vn -0.275400 -0.617400 0.736900
vn -0.125500 -0.303500 0.944500
vn -0.861400 0.059300 0.504400
vn 0.123500 -0.829100 0.545300
vn 0.067000 -0.853900 0.516200
vn 0.037200 -0.863200 0.503500
vn -0.125700 -0.790300 0.599700
vn -0.525900 -0.035200 0.849800
vn -0.417900 0.898300 0.135400
vn -0.307700 0.933100 0.186100
vn -0.390600 0.076700 0.917300
vn -0.135200 0.960300 0.244000
vn -0.240700 0.094900 0.965900
vn -0.017200 0.950400 0.310500
vn -0.179400 0.065400 0.981600
vn 0.121100 0.809200 0.575000
vn -0.013100 -0.025500 0.999600
vn 0.006600 -0.116400 0.993200
vn -0.242400 -0.759600 0.603500
vn -0.179400 -0.857900 0.481500
vn -0.133900 -0.919900 0.368500
vn -0.046000 -0.919000 0.391500
vn 0.050500 -0.928100 0.368900
vn 0.113300 -0.936500 0.331800
vn -0.186100 -0.496400 0.847900
vn -0.320700 -0.616600 0.719000
vn 0.013200 -0.025400 0.999600
vn 0.179500 0.065300 0.981600
vn -0.121000 0.809300 0.574900
vn 0.017200 0.950400 0.310400
vn 0.240700 0.094700 0.965900
vn 0.135300 0.960300 0.244000
vn 0.390500 0.076400 0.917400
vn 0.307900 0.933000 0.186200
vn 0.525700 -0.035600 0.849900
vn 0.418000 0.898300 0.135500
vn 0.125300 -0.790600 0.599400
vn -0.113700 -0.936600 0.331400
vn -0.050800 -0.928200 0.368600
vn 0.045800 -0.919200 0.391200
vn 0.133900 -0.920000 0.368300
vn 0.179400 -0.857900 0.481400
vn 0.242600 -0.759500 0.603500
vn 0.186300 -0.496200 0.847900
vn 0.321000 -0.616500 0.719000
vn -0.006400 -0.116200 0.993200
vn 0.433100 -0.422500 0.796200
vn 0.371600 -0.181700 0.910400
vn 0.000000 -0.463300 0.886200
vn 0.627000 -0.334200 0.703700
vn 0.631900 -0.561600 0.534200
vn 0.618000 -0.575000 0.536100
vn 0.541700 0.206200 0.814900
vn 0.000000 -0.287400 0.957800
vn 0.269000 0.077200 0.960000
vn -0.371600 -0.181700 0.910400
vn -0.618000 -0.575000 0.536100
vn -0.631900 -0.561600 0.534200
vn -0.627000 -0.334200 0.703700
vn -0.433100 -0.422500 0.796200
vn -0.421800 -0.552200 0.719100
vn -0.415400 -0.719400 0.556700
vn 0.000000 -0.652400 0.757900
vn -0.670500 -0.567200 0.478200
vn 0.000000 -0.581300 0.813700
vn 0.421800 -0.552200 0.719100
vn 0.415400 -0.719400 0.556700
vn 0.670500 -0.567200 0.478300
vn -0.541700 0.206300 0.814900
vn -0.269100 0.077200 0.960000
s 1
f 1/1/1 2/2/2 3/3/3
f 4/4/4 2/2/2 1/1/1
f 2/2/2 4/4/4 5/5/5
f 6/6/6 5/5/5 4/4/4
f 7/7/7 5/5/5 6/6/6
f 5/5/5 7/7/7 8/8/8
f 9/9/9 10/10/10 11/11/11
f 12/12/12 11/11/11 10/10/10
f 11/11/11 12/12/12 13/13/13
f 14/14/14 13/13/13 12/12/12
f 13/13/13 14/14/14 15/15/15
f 16/16/16 15/15/15 14/14/14
f 15/15/15 16/16/16 17/17/17
f 18/18/18 17/17/17 16/16/16
f 17/17/17 18/18/18 19/19/19
f 2/2/2 19/19/19 18/18/18
f 19/19/19 2/2/2 20/20/20
f 5/5/5 20/20/20 2/2/2
f 12/12/12 21/21/21 14/14/14
f 22/22/22 14/14/14 21/21/21
f 23/23/23 14/14/14 22/22/22
f 14/14/14 23/23/23 16/16/16
f 24/24/24 16/16/16 23/23/23
f 25/25/25 16/16/16 24/24/24
f 16/16/16 25/25/25 18/18/18
f 26/26/26 18/18/18 25/25/25
f 3/3/3 18/18/18 26/26/26
f 18/18/18 3/3/3 2/2/2
f 27/11/27 28/10/28 29/9/29
f 28/10/28 27/11/27 30/12/30
f 31/13/31 30/12/30 27/11/27
f 30/12/30 31/13/31 32/14/32
f 33/15/33 32/14/32 31/13/31
f 32/14/32 33/15/33 34/16/34
f 35/17/35 34/16/34 33/15/33
f 34/16/34 35/17/35 36/18/36
f 37/19/37 36/18/36 35/17/35
f 36/18/36 37/19/37 38/2/38
f 39/20/39 38/2/38 37/19/37
f 38/2/38 39/20/39 40/5/40
f 41/24/41 34/16/34 42/25/42
f 36/18/36 42/25/42 34/16/34
f 42/25/42 36/18/36 43/26/43
f 43/26/43 36/18/36 44/3/44
f 38/2/38 44/3/44 36/18/36
f 44/3/44 38/2/38 45/1/45
f 45/1/45 38/2/38 46/4/46
f 40/5/40 46/4/46 38/2/38
f 46/4/46 40/5/40 47/6/47
f 47/6/47 40/5/40 48/7/48
f 49/8/49 48/7/48 40/5/40
f 50/27/50 28/10/28 51/28/51
f 51/28/51 28/10/28 52/29/52
f 30/12/30 52/29/52 28/10/28
f 52/29/52 30/12/30 53/30/53
f 53/30/53 30/12/30 54/21/54
f 32/14/32 54/21/54 30/12/30
f 54/21/54 32/14/32 55/22/55
f 55/22/55 32/14/32 56/23/56
f 34/16/34 56/23/56 32/14/32
f 56/23/56 34/16/34 41/24/41
f 57/31/57 58/32/58 59/33/59
f 60/34/60 57/31/57 61/35/61
f 59/33/59 61/35/61 57/31/57
f 61/35/61 59/33/59 62/36/62
f 62/36/62 59/33/59 63/37/63
f 58/32/58 63/37/63 59/33/59
f 64/38/64 63/37/63 58/32/58
f 29/9/29 63/37/63 64/38/64
f 63/37/63 29/9/29 65/39/65
f 28/10/28 65/39/65 29/9/29
f 65/39/65 28/10/28 50/27/50
f 50/27/50 66/40/66 65/39/65
f 65/39/65 66/40/66 63/37/63
f 62/36/62 63/37/63 66/40/66
f 67/33/67 68/35/68 69/36/69
f 70/27/70 71/39/71 72/40/72
f 73/37/73 72/40/72 71/39/71
f 72/40/72 73/37/73 69/36/69
f 69/36/69 73/37/73 67/33/67
f 74/32/74 67/33/67 73/37/73
f 75/31/75 67/33/67 74/32/74
f 67/33/67 75/31/75 68/35/68
f 76/34/76 68/35/68 75/31/75
f 73/37/73 77/38/77 74/32/74
f 77/38/77 73/37/73 9/9/9
f 71/39/71 9/9/9 73/37/73
f 9/9/9 71/39/71 10/10/10
f 70/27/70 10/10/10 71/39/71
f 78/28/78 10/10/10 70/27/70
f 79/29/79 10/10/10 78/28/78
f 10/10/10 79/29/79 12/12/12
f 80/30/80 12/12/12 79/29/79
f 21/21/21 12/12/12 80/30/80
f 81/41/81 82/42/82 83/43/83
f 83/43/83 82/42/82 84/44/84
f 85/45/85 84/44/84 82/42/82
f 84/44/84 85/45/85 86/46/86
f 87/47/87 86/46/86 85/45/85
f 86/46/86 87/47/87 88/48/88
f 89/49/89 88/48/88 87/47/87
f 88/48/88 89/49/89 90/50/90
f 91/51/91 90/50/90 89/49/89
f 90/50/90 91/51/91 92/52/92
f 93/53/93 91/51/91 94/54/94
f 89/49/89 94/54/94 91/51/91
f 94/54/94 89/49/89 95/55/95
f 87/47/87 95/55/95 89/49/89
f 95/55/95 87/47/87 96/56/96
f 85/45/85 96/56/96 87/47/87
f 96/56/96 85/45/85 97/57/97
f 82/42/82 97/57/97 85/45/85
f 97/57/97 82/42/82 98/58/98
f 98/58/98 82/42/82 81/41/81
f 99/59/99 92/52/92 91/51/91
f 92/52/92 99/59/99 100/60/100
f 100/60/100 99/59/99 93/53/93
f 91/51/91 93/53/93 99/59/99
f 101/51/101 102/49/102 103/50/103
f 103/50/103 102/49/102 104/48/104
f 105/47/105 104/48/104 102/49/102
f 104/48/104 105/47/105 106/46/106
f 107/45/107 106/46/106 105/47/105
f 106/46/106 107/45/107 108/44/108
f 109/42/109 108/44/108 107/45/107
f 108/44/108 109/42/109 110/43/110
f 110/43/110 109/42/109 111/41/111
f 111/41/111 109/42/109 112/58/112
f 112/58/112 109/42/109 113/57/113
f 107/45/107 113/57/113 109/42/109
f 113/57/113 107/45/107 114/56/114
f 105/47/105 114/56/114 107/45/107
f 114/56/114 105/47/105 115/55/115
f 102/49/102 115/55/115 105/47/105
f 115/55/115 102/49/102 116/54/116
f 101/51/101 116/54/116 102/49/102
f 116/54/116 101/51/101 117/53/117
f 118/59/118 117/53/117 101/51/101
f 117/53/117 118/59/118 119/60/119
f 119/60/119 118/59/118 120/52/120
f 101/51/101 120/52/120 118/59/118
f 120/52/120 101/51/101 103/50/103
f 122/61/121 123/62/122 124/63/123
f 123/62/122 122/61/121 125/64/124
f 126/65/125 125/64/124 122/61/121
f 125/64/124 126/65/125 127/66/126
f 125/64/124 128/67/127 123/62/122
f 130/68/128 123/62/122 129/69/129
f 123/62/122 130/68/128 124/63/123
f 131/62/130 124/63/123 130/68/128
f 133/66/131 137/65/132 138/64/133
f 138/64/133 137/65/132 139/61/134
f 141/70/135 135/71/136 140/72/137
f 137/65/132 136/73/138 141/70/135
f 141/70/135 139/61/134 137/65/132
f 139/61/134 141/70/135 142/74/139
f 140/72/137 142/74/139 141/70/135
f 142/74/139 140/72/137 143/70/140
f 144/71/141 143/70/140 140/72/137
f 142/74/139 124/63/123 139/61/134
f 124/63/123 142/74/139 122/61/121
f 143/70/140 122/61/121 142/74/139
f 122/61/121 143/70/140 126/65/125
f 145/73/142 126/65/125 143/70/140
f 146/67/143 138/64/133 131/62/130
f 139/61/134 131/62/130 138/64/133
f 131/62/130 139/61/134 124/63/123
f 130/68/128 148/69/144 131/62/130
l 121 126
l 134 140
l 132 137
l 130 147
</pre></body></html>