# Blender v2.82 (sub 7) OBJ File: ''
# www.blender.org
o Plane_Plane.001
v -4.500000 -2.000000 1.200644
v 4.500000 -2.000000 1.200644
v -4.500000 2.000000 1.200644
v 4.500000 2.000000 1.200644
v -3.937500 -2.000000 1.005791
v -3.375000 -2.000000 0.809758
v -2.812500 -2.000000 0.625253
v -2.250000 -2.000000 0.464588
v -1.687500 -2.000000 0.325417
v -1.125000 -2.000000 0.188760
v -0.562500 -2.000000 0.100949
v 0.000000 -2.000000 0.070560
v 0.562500 -2.000000 0.100949
v 1.125000 -2.000000 0.188760
v 1.687500 -2.000000 0.325417
v 2.250000 -2.000000 0.464588
v 2.812500 -2.000000 0.625253
v 3.375000 -2.000000 0.809758
v 3.937500 -2.000000 1.005791
v 3.937500 2.000000 1.005791
v 3.375000 2.000000 0.809759
v 2.812500 2.000000 0.625254
v 2.250000 2.000000 0.464588
v 1.687500 2.000000 0.325417
v 1.125000 2.000000 0.188760
v 0.562500 2.000000 0.100949
v 0.000000 2.000000 0.070560
v -0.562500 2.000000 0.100949
v -1.125000 2.000000 0.188760
v -1.687500 2.000000 0.325417
v -2.250000 2.000000 0.464588
v -2.812500 2.000000 0.625254
v -3.375000 2.000000 0.809759
v -3.937500 2.000000 1.005791
v -4.500000 1.500000 1.122328
v -4.500000 1.000000 1.062276
v -4.500000 0.500000 1.024540
v -4.500000 0.000000 1.011671
v -4.500000 -0.500000 1.024540
v -4.500000 -1.000000 1.062276
v -4.500000 -1.500000 1.122328
v 4.500000 -1.500000 1.122328
v 4.500000 -1.000000 1.062276
v 4.500000 -0.500000 1.024540
v 4.500000 0.000000 1.011671
v 4.500000 0.500000 1.024540
v 4.500000 1.000000 1.062276
v 4.500000 1.500000 1.122328
v -3.937500 -1.500000 0.911032
v -3.937500 -1.000000 0.838661
v -3.937500 -0.500000 0.793274
v -3.937500 0.000000 0.777808
v -3.937500 0.500000 0.793274
v -3.937500 1.000000 0.838661
v -3.937500 1.500000 0.911032
v -3.375000 -1.500000 0.699142
v -3.375000 -1.000000 0.614710
v -3.375000 -0.500000 0.561739
v -3.375000 0.000000 0.543680
v -3.375000 0.500000 0.561739
v -3.375000 1.000000 0.614710
v -3.375000 1.500000 0.699142
v -2.812500 -1.500000 0.499666
v -2.812500 -1.000000 0.403584
v -2.812500 -0.500000 0.343142
v -2.812500 0.000000 0.322498
v -2.812500 0.500000 0.343142
v -2.812500 1.000000 0.403584
v -2.812500 1.500000 0.499666
v -2.250000 -1.500000 0.325417
v -2.250000 -1.000000 0.218388
v -2.250000 -0.500000 0.150684
v -2.250000 0.000000 0.127473
v -2.250000 0.500000 0.150684
v -2.250000 1.000000 0.218388
v -2.250000 1.500000 0.325417
v -1.687500 -1.500000 0.188760
v -1.687500 -1.000000 0.072075
v -1.687500 -0.500000 -0.002447
v -1.687500 0.000000 -0.028186
v -1.687500 0.500000 -0.002447
v -1.687500 1.000000 0.072075
v -1.687500 1.500000 0.188760
v -1.125000 -1.500000 0.072075
v -1.125000 -1.000000 -0.022918
v -1.125000 -0.500000 -0.103132
v -1.125000 0.000000 -0.131269
v -1.125000 0.500000 -0.103132
v -1.125000 1.000000 -0.022918
v -1.125000 1.500000 0.072075
v -0.562500 -1.500000 -0.022918
v -0.562500 -1.000000 -0.103132
v -0.562500 -0.500000 -0.138904
v -0.562500 0.000000 -0.168566
v -0.562500 0.500000 -0.138904
v -0.562500 1.000000 -0.103132
v -0.562500 1.500000 -0.022918
v 0.000000 -1.500000 -0.056103
v 0.000000 -1.000000 -0.138904
v 0.000000 -0.500000 -0.168566
v 0.000000 0.000000 -0.168566
v 0.000000 0.500000 -0.168566
v 0.000000 1.000000 -0.138904
v 0.000000 1.500000 -0.056102
v 0.562500 -1.500000 -0.022918
v 0.562500 -1.000000 -0.103132
v 0.562500 -0.500000 -0.138904
v 0.562500 0.000000 -0.168566
v 0.562500 0.500000 -0.138904
v 0.562500 1.000000 -0.103132
v 0.562500 1.500000 -0.022918
v 1.125000 -1.500000 0.072075
v 1.125000 -1.000000 -0.022918
v 1.125000 -0.500000 -0.103132
v 1.125000 0.000000 -0.131269
v 1.125000 0.500000 -0.103132
v 1.125000 1.000000 -0.022918
v 1.125000 1.500000 0.072075
v 1.687500 -1.500000 0.188760
v 1.687500 -1.000000 0.072075
v 1.687500 -0.500000 -0.002447
v 1.687500 0.000000 -0.028186
v 1.687500 0.500000 -0.002447
v 1.687500 1.000000 0.072075
v 1.687500 1.500000 0.188760
v 2.250000 -1.500000 0.325417
v 2.250000 -1.000000 0.218388
v 2.250000 -0.500000 0.150684
v 2.250000 0.000000 0.127473
v 2.250000 0.500000 0.150684
v 2.250000 1.000000 0.218388
v 2.250000 1.500000 0.325417
v 2.812500 -1.500000 0.499666
v 2.812500 -1.000000 0.403584
v 2.812500 -0.500000 0.343142
v 2.812500 0.000000 0.322498
v 2.812500 0.500000 0.343142
v 2.812500 1.000000 0.403584
v 2.812500 1.500000 0.499666
v 3.375000 -1.500000 0.699142
v 3.375000 -1.000000 0.614710
v 3.375000 -0.500000 0.561739
v 3.375000 0.000000 0.543680
v 3.375000 0.500000 0.561739
v 3.375000 1.000000 0.614710
v 3.375000 1.500000 0.699142
v 3.937500 -1.500000 0.911032
v 3.937500 -1.000000 0.838661
v 3.937500 -0.500000 0.793274
v 3.937500 0.000000 0.777808
v 3.937500 0.500000 0.793274
v 3.937500 1.000000 0.838661
v 3.937500 1.500000 0.911032
v -4.500000 -1.500000 1.075280
v -4.500000 -2.000000 1.155191
v 3.937500 -2.000000 0.964946
v 4.500000 -2.000000 1.155191
v 4.500000 1.500000 1.075281
v 4.500000 2.000000 1.155192
v -3.937500 2.000000 0.964946
v -4.500000 2.000000 1.155192
v -3.937500 -2.000000 0.964946
v -3.375000 -2.000000 0.771484
v -2.812500 -2.000000 0.587682
v -2.250000 -2.000000 0.426478
v -1.687500 -2.000000 0.286162
v -1.125000 -2.000000 0.147799
v -0.562500 -2.000000 0.058717
v 0.000000 -2.000000 0.027913
v 0.562500 -2.000000 0.058717
v 1.125000 -2.000000 0.147799
v 1.687500 -2.000000 0.286162
v 2.250000 -2.000000 0.426478
v 2.812500 -2.000000 0.587682
v 3.375000 -2.000000 0.771484
v 3.937500 2.000000 0.964946
v 3.375000 2.000000 0.771484
v 2.812500 2.000000 0.587683
v 2.250000 2.000000 0.426479
v 1.687500 2.000000 0.286163
v 1.125000 2.000000 0.147799
v 0.562500 2.000000 0.058717
v 0.000000 2.000000 0.027913
v -0.562500 2.000000 0.058717
v -1.125000 2.000000 0.147799
v -1.687500 2.000000 0.286163
v -2.250000 2.000000 0.426479
v -2.812500 2.000000 0.587683
v -3.375000 2.000000 0.771484
v -4.500000 1.500000 1.075281
v -4.500000 1.000000 1.014131
v -4.500000 0.500000 0.975751
v -4.500000 0.000000 0.962670
v -4.500000 -0.500000 0.975751
v -4.500000 -1.000000 1.014131
v 4.500000 -1.500000 1.075280
v 4.500000 -1.000000 1.014131
v 4.500000 -0.500000 0.975751
v 4.500000 0.000000 0.962670
v 4.500000 0.500000 0.975751
v 4.500000 1.000000 1.014131
vt 0.933845 0.872559
vt 0.933845 0.996745
vt 0.995823 0.996745
vt 0.995823 0.872559
vt 0.004177 0.872559
vt 0.004177 0.996745
vt 0.066155 0.996745
vt 0.066155 0.872559
vt 0.128133 0.996745
vt 0.128133 0.872559
vt 0.190111 0.996745
vt 0.190111 0.872559
vt 0.252089 0.996745
vt 0.252089 0.872559
vt 0.314066 0.996745
vt 0.314066 0.872559
vt 0.376044 0.996745
vt 0.376044 0.872559
vt 0.438022 0.996745
vt 0.438022 0.872559
vt 0.500000 0.996745
vt 0.500000 0.872559
vt 0.561978 0.996745
vt 0.561978 0.872559
vt 0.623956 0.996745
vt 0.623956 0.872559
vt 0.685933 0.996745
vt 0.685933 0.872559
vt 0.747911 0.996745
vt 0.747911 0.872559
vt 0.809889 0.996745
vt 0.809889 0.872559
vt 0.871867 0.996745
vt 0.871867 0.872559
vt 0.871867 0.003255
vt 0.871867 0.127441
vt 0.933845 0.127441
vt 0.933845 0.003255
vt 0.871867 0.251627
vt 0.933845 0.251627
vt 0.871867 0.375814
vt 0.933845 0.375814
vt 0.871867 0.500000
vt 0.933845 0.500000
vt 0.871867 0.624186
vt 0.933845 0.624186
vt 0.871867 0.748372
vt 0.933845 0.748372
vt 0.809889 0.003255
vt 0.809889 0.127441
vt 0.809889 0.251627
vt 0.809889 0.375814
vt 0.809889 0.500000
vt 0.809889 0.624186
vt 0.809889 0.748372
vt 0.747912 0.003255
vt 0.747912 0.127441
vt 0.747912 0.251627
vt 0.747912 0.375814
vt 0.747912 0.500000
vt 0.747911 0.624186
vt 0.747911 0.748372
vt 0.685934 0.003255
vt 0.685934 0.127441
vt 0.685934 0.251627
vt 0.685934 0.375814
vt 0.685934 0.500000
vt 0.685934 0.624186
vt 0.685934 0.748373
vt 0.623956 0.003255
vt 0.623956 0.127441
vt 0.623956 0.251627
vt 0.623956 0.375814
vt 0.623956 0.500000
vt 0.623956 0.624186
vt 0.623956 0.748372
vt 0.561978 0.003255
vt 0.561978 0.127441
vt 0.561978 0.251627
vt 0.561978 0.375814
vt 0.561978 0.500000
vt 0.561978 0.624186
vt 0.561978 0.748372
vt 0.500000 0.003255
vt 0.500000 0.127441
vt 0.500000 0.251628
vt 0.500000 0.375814
vt 0.500000 0.500000
vt 0.500000 0.624186
vt 0.500000 0.748373
vt 0.438022 0.003255
vt 0.438022 0.127441
vt 0.438022 0.251628
vt 0.438022 0.375814
vt 0.438022 0.500000
vt 0.438022 0.624186
vt 0.438022 0.748373
vt 0.376044 0.003255
vt 0.376044 0.127441
vt 0.376044 0.251628
vt 0.376044 0.375814
vt 0.376044 0.500000
vt 0.376044 0.624186
vt 0.376044 0.748373
vt 0.314067 0.003255
vt 0.314067 0.127441
vt 0.314067 0.251628
vt 0.314067 0.375814
vt 0.314067 0.500000
vt 0.314067 0.624186
vt 0.314066 0.748373
vt 0.252089 0.003255
vt 0.252089 0.127441
vt 0.252089 0.251628
vt 0.252089 0.375814
vt 0.252089 0.500000
vt 0.252089 0.624186
vt 0.252089 0.748373
vt 0.190111 0.003255
vt 0.190111 0.127441
vt 0.190111 0.251628
vt 0.190111 0.375814
vt 0.190111 0.500000
vt 0.190111 0.624186
vt 0.190111 0.748373
vt 0.128133 0.003255
vt 0.128133 0.127441
vt 0.128133 0.251628
vt 0.128133 0.375814
vt 0.128133 0.500000
vt 0.128133 0.624186
vt 0.128133 0.748373
vt 0.066155 0.003255
vt 0.066155 0.127441
vt 0.066155 0.251628
vt 0.066155 0.375814
vt 0.066155 0.500000
vt 0.066155 0.624186
vt 0.066155 0.748373
vt 0.004177 0.003255
vt 0.004177 0.127441
vt 0.004177 0.251628
vt 0.004177 0.375814
vt 0.004177 0.500000
vt 0.004177 0.624186
vt 0.004177 0.748373
vt 0.995823 0.127441
vt 0.995823 0.003255
vt 0.995823 0.251627
vt 0.995823 0.375814
vt 0.995823 0.500000
vt 0.995823 0.624186
vt 0.995823 0.748372
vt 0.995823 0.872559
vt 0.995823 0.748372
vt 0.066155 0.996745
vt 0.128133 0.996745
vt 0.004177 0.872559
vt 0.004177 0.996745
vt 0.004177 0.748373
vt 0.190111 0.996745
vt 0.252089 0.996745
vt 0.314066 0.996745
vt 0.376044 0.996745
vt 0.438022 0.996745
vt 0.500000 0.996745
vt 0.561978 0.996745
vt 0.623956 0.996745
vt 0.685933 0.996745
vt 0.747911 0.996745
vt 0.809889 0.996745
vt 0.871867 0.996745
vt 0.995823 0.127441
vt 0.995823 0.003255
vt 0.933845 0.996745
vt 0.871867 0.003255
vt 0.809889 0.003255
vt 0.747912 0.003255
vt 0.685934 0.003255
vt 0.623956 0.003255
vt 0.561978 0.003255
vt 0.500000 0.003255
vt 0.438022 0.003255
vt 0.376044 0.003255
vt 0.314067 0.003255
vt 0.252089 0.003255
vt 0.190111 0.003255
vt 0.128133 0.003255
vt 0.004177 0.127441
vt 0.004177 0.251628
vt 0.066155 0.003255
vt 0.004177 0.003255
vt 0.995823 0.251627
vt 0.004177 0.375814
vt 0.004177 0.500000
vt 0.004177 0.624186
vt 0.933845 0.003255
vt 0.995823 0.375814
vt 0.995823 0.500000
vt 0.995823 0.624186
vt 0.995823 0.996745
vn 0.3464 0.1546 -0.9253
vn 0.3350 0.1746 -0.9259
vn 0.3352 0.1607 -0.9284
vn 0.3462 0.1422 -0.9273
vn -0.3462 0.1422 -0.9273
vn -0.3352 0.1607 -0.9284
vn -0.3350 0.1746 -0.9259
vn -0.3464 0.1546 -0.9253
vn -0.3254 0.2033 -0.9235
vn -0.3365 0.1801 -0.9243
vn -0.2969 0.2315 -0.9264
vn -0.3073 0.2055 -0.9292
vn -0.2544 0.2522 -0.9337
vn -0.2612 0.2267 -0.9383
vn -0.2220 0.2497 -0.9425
vn -0.2161 0.2286 -0.9492
vn -0.1855 0.2357 -0.9539
vn -0.1754 0.2115 -0.9615
vn -0.1063 0.2371 -0.9657
vn -0.1057 0.2014 -0.9738
vn 0.0000 0.2430 -0.9700
vn 0.0000 0.2018 -0.9794
vn 0.1063 0.2371 -0.9657
vn 0.1057 0.2014 -0.9738
vn 0.1855 0.2357 -0.9539
vn 0.1754 0.2115 -0.9615
vn 0.2220 0.2497 -0.9425
vn 0.2161 0.2286 -0.9492
vn 0.2544 0.2522 -0.9337
vn 0.2612 0.2267 -0.9383
vn 0.2969 0.2315 -0.9264
vn 0.3073 0.2055 -0.9292
vn 0.3254 0.2033 -0.9235
vn 0.3365 0.1801 -0.9243
vn 0.3254 -0.2033 -0.9235
vn 0.3365 -0.1801 -0.9243
vn 0.3464 -0.1546 -0.9253
vn 0.3350 -0.1746 -0.9259
vn 0.3561 -0.1272 -0.9257
vn 0.3658 -0.1089 -0.9243
vn 0.3688 -0.0659 -0.9272
vn 0.3781 -0.0563 -0.9241
vn 0.3732 -0.0000 -0.9277
vn 0.3823 0.0000 -0.9241
vn 0.3688 0.0659 -0.9272
vn 0.3781 0.0563 -0.9241
vn 0.3561 0.1272 -0.9257
vn 0.3658 0.1089 -0.9243
vn 0.2969 -0.2315 -0.9264
vn 0.3073 -0.2055 -0.9292
vn 0.3270 -0.1460 -0.9337
vn 0.3401 -0.0760 -0.9373
vn 0.3448 -0.0000 -0.9387
vn 0.3401 0.0760 -0.9373
vn 0.3270 0.1460 -0.9337
vn 0.2544 -0.2522 -0.9337
vn 0.2612 -0.2267 -0.9383
vn 0.2772 -0.1649 -0.9466
vn 0.2903 -0.0865 -0.9530
vn 0.2951 0.0000 -0.9555
vn 0.2903 0.0865 -0.9530
vn 0.2772 0.1649 -0.9466
vn 0.2220 -0.2497 -0.9425
vn 0.2161 -0.2286 -0.9492
vn 0.2112 -0.1756 -0.9616
vn 0.2168 -0.0969 -0.9714
vn 0.2214 -0.0000 -0.9752
vn 0.2168 0.0969 -0.9714
vn 0.2112 0.1756 -0.9616
vn 0.1855 -0.2357 -0.9539
vn 0.1754 -0.2115 -0.9615
vn 0.1512 -0.1600 -0.9755
vn 0.1286 -0.0939 -0.9872
vn 0.1215 -0.0000 -0.9926
vn 0.1286 0.0939 -0.9872
vn 0.1512 0.1600 -0.9755
vn 0.1063 -0.2371 -0.9657
vn 0.1057 -0.2014 -0.9738
vn 0.0929 -0.1279 -0.9874
vn 0.0628 -0.0668 -0.9958
vn 0.0456 -0.0000 -0.9990
vn 0.0628 0.0668 -0.9958
vn 0.0929 0.1279 -0.9874
vn 0.0000 -0.2430 -0.9700
vn 0.0000 -0.2018 -0.9794
vn 0.0000 -0.1130 -0.9936
vn 0.0000 -0.0474 -0.9989
vn 0.0000 -0.0000 -1.0000
vn 0.0000 0.0474 -0.9989
vn 0.0000 0.1130 -0.9936
vn -0.1063 -0.2371 -0.9657
vn -0.1057 -0.2014 -0.9738
vn -0.0929 -0.1279 -0.9874
vn -0.0628 -0.0668 -0.9958
vn -0.0456 -0.0000 -0.9990
vn -0.0628 0.0668 -0.9958
vn -0.0929 0.1279 -0.9874
vn -0.1855 -0.2357 -0.9539
vn -0.1754 -0.2115 -0.9615
vn -0.1512 -0.1600 -0.9755
vn -0.1286 -0.0939 -0.9872
vn -0.1215 -0.0000 -0.9926
vn -0.1286 0.0939 -0.9872
vn -0.1512 0.1600 -0.9755
vn -0.2220 -0.2497 -0.9425
vn -0.2161 -0.2286 -0.9492
vn -0.2112 -0.1756 -0.9616
vn -0.2168 -0.0969 -0.9714
vn -0.2214 -0.0000 -0.9752
vn -0.2168 0.0969 -0.9714
vn -0.2112 0.1756 -0.9616
vn -0.2544 -0.2522 -0.9337
vn -0.2612 -0.2267 -0.9383
vn -0.2772 -0.1649 -0.9466
vn -0.2903 -0.0865 -0.9530
vn -0.2951 0.0000 -0.9555
vn -0.2903 0.0865 -0.9530
vn -0.2772 0.1649 -0.9466
vn -0.2969 -0.2315 -0.9264
vn -0.3073 -0.2055 -0.9292
vn -0.3270 -0.1460 -0.9337
vn -0.3401 -0.0760 -0.9373
vn -0.3448 0.0000 -0.9387
vn -0.3401 0.0760 -0.9373
vn -0.3270 0.1460 -0.9337
vn -0.3254 -0.2033 -0.9235
vn -0.3365 -0.1801 -0.9243
vn -0.3561 -0.1272 -0.9257
vn -0.3688 -0.0659 -0.9272
vn -0.3732 0.0000 -0.9277
vn -0.3688 0.0659 -0.9272
vn -0.3561 0.1272 -0.9257
vn -0.3350 -0.1746 -0.9259
vn -0.3464 -0.1546 -0.9253
vn -0.3658 -0.1089 -0.9243
vn -0.3781 -0.0563 -0.9241
vn -0.3823 0.0000 -0.9241
vn -0.3781 0.0563 -0.9241
vn -0.3658 0.1089 -0.9243
vn -0.3352 -0.1607 -0.9284
vn -0.3462 -0.1422 -0.9273
vn -0.3657 -0.1003 -0.9253
vn -0.3779 -0.0518 -0.9244
vn -0.3821 0.0000 -0.9241
vn -0.3779 0.0518 -0.9244
vn -0.3657 0.1003 -0.9253
vn 0.3462 -0.1422 -0.9273
vn 0.3352 -0.1607 -0.9284
vn 0.3657 -0.1003 -0.9253
vn 0.3779 -0.0518 -0.9244
vn 0.3821 0.0000 -0.9241
vn 0.3779 0.0518 -0.9244
vn 0.3657 0.1003 -0.9253
vn -1.0000 0.0000 0.0000
vn 0.0000 -1.0000 0.0000
vn 1.0000 0.0000 0.0000
vn 0.0000 1.0000 0.0000
s 1
f 153/1/1 20/2/2 4/3/3 48/4/4
f 35/5/5 3/6/6 34/7/7 55/8/8
f 55/8/8 34/7/7 33/9/9 62/10/10
f 62/10/10 33/9/9 32/11/11 69/12/12
f 69/12/12 32/11/11 31/13/13 76/14/14
f 76/14/14 31/13/13 30/15/15 83/16/16
f 83/16/16 30/15/15 29/17/17 90/18/18
f 90/18/18 29/17/17 28/19/19 97/20/20
f 97/20/20 28/19/19 27/21/21 104/22/22
f 104/22/22 27/21/21 26/23/23 111/24/24
f 111/24/24 26/23/23 25/25/25 118/26/26
f 118/26/26 25/25/25 24/27/27 125/28/28
f 125/28/28 24/27/27 23/29/29 132/30/30
f 132/30/30 23/29/29 22/31/31 139/32/32
f 139/32/32 22/31/31 21/33/33 146/34/34
f 146/34/34 21/33/33 20/2/2 153/1/1
f 18/35/35 140/36/36 147/37/37 19/38/38
f 140/36/36 141/39/39 148/40/40 147/37/37
f 141/39/39 142/41/41 149/42/42 148/40/40
f 142/41/41 143/43/43 150/44/44 149/42/42
f 143/43/43 144/45/45 151/46/46 150/44/44
f 144/45/45 145/47/47 152/48/48 151/46/46
f 145/47/47 146/34/34 153/1/1 152/48/48
f 17/49/49 133/50/50 140/36/36 18/35/35
f 133/50/50 134/51/51 141/39/39 140/36/36
f 134/51/51 135/52/52 142/41/41 141/39/39
f 135/52/52 136/53/53 143/43/43 142/41/41
f 136/53/53 137/54/54 144/45/45 143/43/43
f 137/54/54 138/55/55 145/47/47 144/45/45
f 138/55/55 139/32/32 146/34/34 145/47/47
f 16/56/56 126/57/57 133/50/50 17/49/49
f 126/57/57 127/58/58 134/51/51 133/50/50
f 127/58/58 128/59/59 135/52/52 134/51/51
f 128/59/59 129/60/60 136/53/53 135/52/52
f 129/60/60 130/61/61 137/54/54 136/53/53
f 130/61/61 131/62/62 138/55/55 137/54/54
f 131/62/62 132/30/30 139/32/32 138/55/55
f 15/63/63 119/64/64 126/57/57 16/56/56
f 119/64/64 120/65/65 127/58/58 126/57/57
f 120/65/65 121/66/66 128/59/59 127/58/58
f 121/66/66 122/67/67 129/60/60 128/59/59
f 122/67/67 123/68/68 130/61/61 129/60/60
f 123/68/68 124/69/69 131/62/62 130/61/61
f 124/69/69 125/28/28 132/30/30 131/62/62
f 14/70/70 112/71/71 119/64/64 15/63/63
f 112/71/71 113/72/72 120/65/65 119/64/64
f 113/72/72 114/73/73 121/66/66 120/65/65
f 114/73/73 115/74/74 122/67/67 121/66/66
f 115/74/74 116/75/75 123/68/68 122/67/67
f 116/75/75 117/76/76 124/69/69 123/68/68
f 117/76/76 118/26/26 125/28/28 124/69/69
f 13/77/77 105/78/78 112/71/71 14/70/70
f 105/78/78 106/79/79 113/72/72 112/71/71
f 106/79/79 107/80/80 114/73/73 113/72/72
f 107/80/80 108/81/81 115/74/74 114/73/73
f 108/81/81 109/82/82 116/75/75 115/74/74
f 109/82/82 110/83/83 117/76/76 116/75/75
f 110/83/83 111/24/24 118/26/26 117/76/76
f 12/84/84 98/85/85 105/78/78 13/77/77
f 98/85/85 99/86/86 106/79/79 105/78/78
f 99/86/86 100/87/87 107/80/80 106/79/79
f 100/87/87 101/88/88 108/81/81 107/80/80
f 101/88/88 102/89/89 109/82/82 108/81/81
f 102/89/89 103/90/90 110/83/83 109/82/82
f 103/90/90 104/22/22 111/24/24 110/83/83
f 11/91/91 91/92/92 98/85/85 12/84/84
f 91/92/92 92/93/93 99/86/86 98/85/85
f 92/93/93 93/94/94 100/87/87 99/86/86
f 93/94/94 94/95/95 101/88/88 100/87/87
f 94/95/95 95/96/96 102/89/89 101/88/88
f 95/96/96 96/97/97 103/90/90 102/89/89
f 96/97/97 97/20/20 104/22/22 103/90/90
f 10/98/98 84/99/99 91/92/92 11/91/91
f 84/99/99 85/100/100 92/93/93 91/92/92
f 85/100/100 86/101/101 93/94/94 92/93/93
f 86/101/101 87/102/102 94/95/95 93/94/94
f 87/102/102 88/103/103 95/96/96 94/95/95
f 88/103/103 89/104/104 96/97/97 95/96/96
f 89/104/104 90/18/18 97/20/20 96/97/97
f 9/105/105 77/106/106 84/99/99 10/98/98
f 77/106/106 78/107/107 85/100/100 84/99/99
f 78/107/107 79/108/108 86/101/101 85/100/100
f 79/108/108 80/109/109 87/102/102 86/101/101
f 80/109/109 81/110/110 88/103/103 87/102/102
f 81/110/110 82/111/111 89/104/104 88/103/103
f 82/111/111 83/16/16 90/18/18 89/104/104
f 8/112/112 70/113/113 77/106/106 9/105/105
f 70/113/113 71/114/114 78/107/107 77/106/106
f 71/114/114 72/115/115 79/108/108 78/107/107
f 72/115/115 73/116/116 80/109/109 79/108/108
f 73/116/116 74/117/117 81/110/110 80/109/109
f 74/117/117 75/118/118 82/111/111 81/110/110
f 75/118/118 76/14/14 83/16/16 82/111/111
f 7/119/119 63/120/120 70/113/113 8/112/112
f 63/120/120 64/121/121 71/114/114 70/113/113
f 64/121/121 65/122/122 72/115/115 71/114/114
f 65/122/122 66/123/123 73/116/116 72/115/115
f 66/123/123 67/124/124 74/117/117 73/116/116
f 67/124/124 68/125/125 75/118/118 74/117/117
f 68/125/125 69/12/12 76/14/14 75/118/118
f 6/126/126 56/127/127 63/120/120 7/119/119
f 56/127/127 57/128/128 64/121/121 63/120/120
f 57/128/128 58/129/129 65/122/122 64/121/121
f 58/129/129 59/130/130 66/123/123 65/122/122
f 59/130/130 60/131/131 67/124/124 66/123/123
f 60/131/131 61/132/132 68/125/125 67/124/124
f 61/132/132 62/10/10 69/12/12 68/125/125
f 5/133/133 49/134/134 56/127/127 6/126/126
f 49/134/134 50/135/135 57/128/128 56/127/127
f 50/135/135 51/136/136 58/129/129 57/128/128
f 51/136/136 52/137/137 59/130/130 58/129/129
f 52/137/137 53/138/138 60/131/131 59/130/130
f 53/138/138 54/139/139 61/132/132 60/131/131
f 54/139/139 55/8/8 62/10/10 61/132/132
f 1/140/140 41/141/141 49/134/134 5/133/133
f 41/141/141 40/142/142 50/135/135 49/134/134
f 40/142/142 39/143/143 51/136/136 50/135/135
f 39/143/143 38/144/144 52/137/137 51/136/136
f 38/144/144 37/145/145 53/138/138 52/137/137
f 37/145/145 36/146/146 54/139/139 53/138/138
f 36/146/146 35/5/5 55/8/8 54/139/139
f 19/38/38 147/37/37 42/147/147 2/148/148
f 147/37/37 148/40/40 43/149/149 42/147/147
f 148/40/40 149/42/42 44/150/150 43/149/149
f 149/42/42 150/44/44 45/151/151 44/150/150
f 150/44/44 151/46/46 46/152/152 45/151/151
f 151/46/46 152/48/48 47/153/153 46/152/152
f 152/48/48 153/1/1 48/4/4 47/153/153
f 47/153/154 48/4/154 158/154/154 201/155/154
f 33/9/155 34/7/155 160/156/155 189/157/155
f 3/6/156 35/5/156 190/158/156 161/159/156
f 35/5/156 36/146/156 191/160/156 190/158/156
f 32/11/155 33/9/155 189/157/155 188/161/155
f 31/13/155 32/11/155 188/161/155 187/162/155
f 30/15/155 31/13/155 187/162/155 186/163/155
f 29/17/155 30/15/155 186/163/155 185/164/155
f 28/19/155 29/17/155 185/164/155 184/165/155
f 27/21/155 28/19/155 184/165/155 183/166/155
f 26/23/155 27/21/155 183/166/155 182/167/155
f 25/25/155 26/23/155 182/167/155 181/168/155
f 24/27/155 25/25/155 181/168/155 180/169/155
f 23/29/155 24/27/155 180/169/155 179/170/155
f 22/31/155 23/29/155 179/170/155 178/171/155
f 21/33/155 22/31/155 178/171/155 177/172/155
f 2/148/154 42/147/154 196/173/154 157/174/154
f 20/2/155 21/33/155 177/172/155 176/175/155
f 17/49/157 18/35/157 175/176/157 174/177/157
f 16/56/157 17/49/157 174/177/157 173/178/157
f 15/63/157 16/56/157 173/178/157 172/179/157
f 14/70/157 15/63/157 172/179/157 171/180/157
f 13/77/157 14/70/157 171/180/157 170/181/157
f 12/84/157 13/77/157 170/181/157 169/182/157
f 11/91/157 12/84/157 169/182/157 168/183/157
f 10/98/157 11/91/157 168/183/157 167/184/157
f 9/105/157 10/98/157 167/184/157 166/185/157
f 8/112/157 9/105/157 166/185/157 165/186/157
f 7/119/157 8/112/157 165/186/157 164/187/157
f 6/126/157 7/119/157 164/187/157 163/188/157
f 40/142/156 41/141/156 154/189/156 195/190/156
f 1/140/157 5/133/157 162/191/157 155/192/157
f 42/147/154 43/149/154 197/193/154 196/173/154
f 39/143/156 40/142/156 195/190/156 194/194/156
f 38/144/156 39/143/156 194/194/156 193/195/156
f 37/145/156 38/144/156 193/195/156 192/196/156
f 36/146/156 37/145/156 192/196/156 191/160/156
f 18/35/157 19/38/157 156/197/157 175/176/157
f 43/149/154 44/150/154 198/198/154 197/193/154
f 44/150/154 45/151/154 199/199/154 198/198/154
f 45/151/154 46/152/154 200/200/154 199/199/154
f 46/152/154 47/153/154 201/155/154 200/200/154
f 4/3/155 20/2/155 176/175/155 159/201/155
f 48/4/154 4/3/154 159/201/154 158/154/154
f 19/38/157 2/148/157 157/174/157 156/197/157
f 34/7/155 3/6/155 161/159/155 160/156/155
f 5/133/157 6/126/157 163/188/157 162/191/157
f 41/141/156 1/140/156 155/192/156 154/189/156
